# xmcd
#
# Track frame offsets:
#	150
#	16860
#	42555
#	61037
#	80415
#	98527
#	116767
#	144562
#	166450
#	186577
#	203937
#	228340
#	249977
#	274500
#	302385
#
# Disc length: 4424 seconds
#
# Revision: 1
# Processed by: cddbd v1.5.1PL0 Copyright (c) Steve Scherf et al.
# Submitted via: CDex 1.50Beta5
#
DISCID=c211460f
DTITLE=さまざまなアーティスト - ladies&gentlemen!
DYEAR=1900
DGENRE=
TTITLE0=yourhythmix
TTITLE1=ladies&gentlemen!
TTITLE2=the rhythm of love
TTITLE3=inazuma guitar
TTITLE4=disco minimal
TTITLE5=castle gate
TTITLE6=compromise
TTITLE7=artemis
TTITLE8=once again
TTITLE9=we japanese
TTITLE10=pandora
TTITLE11=come to life
TTITLE12=emerge
TTITLE13=this is a realthing
TTITLE14=四季の歌
EXTD=
EXTT0=
EXTT1=
EXTT2=
EXTT3=
EXTT4=
EXTT5=
EXTT6=
EXTT7=
EXTT8=
EXTT9=
EXTT10=
EXTT11=
EXTT12=
EXTT13=
EXTT14=
PLAYORDER=
